General

Format                         : MPEG-4
Format profile                 : Base Media
Codec ID                       : isom
File size                      : 65.3 MiB
Duration                       : 3mn 38s
Overall bit rate mode          : Variable
Overall bit rate               : 2 506 Kbps
Encoded date                   : UTC 2012-11-04 01:59:04
Tagged date                    : UTC 2012-11-04 01:59:04

Video
ID                             : 1
Format                         : AVC
Format/Info                    : Advanced Video Codec
Format profile                 : High@L3.0
Format settings, CABAC         : Yes
Format settings, ReFrames      : 2 frames
Codec ID                       : avc1
Codec ID/Info                  : Advanced Video Coding
Duration                       : 3mn 38s
Bit rate                       : 2 311 Kbps
Maximum bit rate               : 5 046 Kbps
Width                          : 720 pixels
Height                         : 480 pixels
Display aspect ratio           : 16:9
Original display aspect ratio  : 16:9
Frame rate mode                : Constant
Frame rate                     : 24.000 fps
Standard                       : NTSC
Color space                    : YUV
Chroma subsampling             : 4:2:0
Bit depth                      : 8 bits
Scan type                      : Progressive
Bits/(Pixel*Frame)             : 0.279
Stream size                    : 60.2 MiB (92%)


Audio
ID                             : 2
Format                         : AAC
Format/Info                    : Advanced Audio Codec
Format profile                 : LC
Codec ID                       : 40
Duration                       : 3mn 38s
Bit rate mode                  : Variable
Bit rate                       : 192 Kbps
Maximum bit rate               : 229 Kbps
Channel(s)                     : 2 channels
Channel positions              : Front: L R
Sampling rate                  : 44.1 KHz
Compression mode               : Lossy
Stream size                    : 4.99 MiB (8%)